<?xml version="1.0" encoding="utf-8"?>
<!-- Generator: Adobe Illustrator 19.2.1, SVG Export Plug-In . SVG Version: 6.00 Build 0)  -->
<svg version="1.1" id="_x39_73c7d99-bf9c-416f-abe0-9dcc5ca5222b"
	 xmlns="http://www.w3.org/2000/svg" xmlns:xlink="http://www.w3.org/1999/xlink" x="0px" y="0px" viewBox="0 0 751.3 114.7"
	 style="enable-background:new 0 0 751.3 114.7;" xml:space="preserve">
<style type="text/css">
	.st0{fill:#FFFFFF;}
	.st1{fill:#FFFFFF;stroke:#FFFFFF;stroke-width:0.75;stroke-miterlimit:10;}
</style>
<title>cotton-logo</title>
<metadata><?xpacket begin="﻿" id="W5M0MpCehiHzreSzNTczkc9d"?>
<x:xmpmeta xmlns:x="adobe:ns:meta/" x:xmptk="Adobe XMP Core 5.6-c111 79.158366, 2015/09/25-01:12:00        ">
   <rdf:RDF xmlns:rdf="http://www.w3.org/1999/02/22-rdf-syntax-ns#">
      <rdf:Description rdf:about=""
            xmlns:dc="http://purl.org/dc/elements/1.1/">
         <dc:title>
            <rdf:Alt>
               <rdf:li xml:lang="x-default">cotton-logo</rdf:li>
            </rdf:Alt>
         </dc:title>
      </rdf:Description>
   </rdf:RDF>
</x:xmpmeta>
                                                                                                    
                                                                                                    
                                                                                                    
                                                                                                    
                                                                                                    
                                                                                                    
                                                                                                    
                                                                                                    
                                                                                                    
                                                                                                    
                                                                                                    
                                                                                                    
                                                                                                    
                                                                                                    
                                                                                                    
                                                                                                    
                                                                                                    
                                                                                                    
                                                                                                    
                                                                                                    
                           
<?xpacket end="w"?></metadata>
<polygon class="st0" points="291.9,47.6 310.1,47.6 310.1,96 318.3,96 318.3,47.6 336.5,47.6 336.5,39.9 291.9,39.9 "/>
<path class="st0" d="M215,81.8c-4.7,4.5-9.4,7.5-16.8,7.5c-11.4,0-19.9-9.2-19.9-21.4s8.6-21.2,19.9-21.2c6.1,0,11,2.1,16.3,7.1
	l0.8,0.7l5.6-6l-0.7-0.7c-4.9-4.6-10.9-8.8-21.8-8.8C182.2,39,170,51.5,170,68.1S182.1,97,198.1,97c11.2,0,17.6-5,22.4-9.8l0.7-0.7
	l-5.5-5.3L215,81.8z"/>
<path class="st0" d="M258.7,39C242.6,39,230,51.8,230,68.1c0,16.5,12.3,28.9,28.6,28.9c16.1,0,28.7-12.8,28.7-29.1
	C287.2,51.4,275,39,258.7,39z M258.7,89.3c-11.6,0-20.3-9.2-20.3-21.4s8.7-21.2,20.1-21.2s20.3,9.2,20.3,21.4S270.2,89.3,258.7,89.3
	L258.7,89.3z"/>
<polygon class="st0" points="345.8,47.6 364,47.6 364,96 372.2,96 372.2,47.6 390.4,47.6 390.4,39.9 345.8,39.9 "/>
<path class="st0" d="M694.4,39.5h-7L661.8,96h8.5l6.4-14.3h28.1l6.3,14.3h8.8L694.4,39.5z M680.1,74.2l10.8-24l10.7,24H680.1z"/>
<path class="st0" d="M638.3,64c-11.7-2.5-13.9-5.2-13.9-9.6c0-4.6,4.3-7.8,10.5-7.8c5.5,0,10.2,1.8,15,5.6l0.8,0.7l4.8-6.4l-0.8-0.6
	c-5.5-4.6-12.5-7.1-19.6-6.9c-10.9,0-18.8,6.7-18.8,15.9c0,10.4,7.6,14.2,19,16.7c11.2,2.4,13.2,5,13.2,9.3c0,4.9-4.4,8.2-11,8.2
	c-6.9,0-12-2.1-17.8-7.4l-0.8-0.7l-5.1,6.1l0.7,0.7c6.8,6.1,14,8.9,22.8,8.9c11.5,0,19.5-6.7,19.5-16.4
	C656.7,71.8,651.2,66.8,638.3,64z"/>
<path class="st0" d="M423.7,39C407.6,39,395,51.8,395,68.1c0,16.5,12.3,28.9,28.5,28.9c16.1,0,28.7-12.8,28.7-29.1
	C452.2,51.4,440,39,423.7,39z M423.7,89.3c-11.6,0-20.3-9.2-20.3-21.4s8.7-21.2,20.1-21.2s20.3,9.2,20.3,21.4S435.2,89.3,423.7,89.3
	L423.7,89.3z"/>
<polygon class="st0" points="505.9,81.3 473.4,39.9 466.2,39.9 466.2,96 474.1,96 474.1,53.6 507.5,96 513.9,96 513.9,39.9 
	505.9,39.9 "/>
<path class="st0" d="M596.1,72.4c0,10.8-5.4,16.8-15.3,16.8s-15.5-6.3-15.5-17.2V39.9h-8.2v32.5c0,15.1,9,24.5,23.5,24.5
	c14.8,0,23.6-9.3,23.6-25v-32h-8.2L596.1,72.4L596.1,72.4z"/>
<path class="st0" d="M135.2,53.2c-0.2-26.5-23.9-34.7-24.1-34.8c-4.4-1.5-9-2.2-13.6-2.3C96,13.4,87.7,0,68.6,0h-0.3
	C50,0.1,41,14.2,39.5,17c-4.4,0.1-8.8,0.9-12.9,2.3C16.2,23.1,8.2,31.5,4.9,42C1.2,52.4,3.8,62.6,4.4,64.7
	c-13.3,24.3,7.7,39.2,7.9,39.3c0.6,0.4,1.5,0.3,1.9-0.4c0.4-0.5,0.3-1.3-0.2-1.7c-17.6-16-5-35.5-4.5-36.3l0.2-0.3l-0.1-0.4
	c-2.1-7-2-14.6,0.4-21.6C16.2,26.8,30.6,24,30.8,24c3.9-0.7,7.8-1.2,11.8-1.2h0.5l0.2-0.5c4.4-9.6,14-15.8,24.5-16h0.7
	c17.8,0,24.9,15.7,25,15.9l0.2,0.5h0.5c3.4,0.1,6.8,0.4,10.2,0.9c0.2,0,21.2,3.4,23.8,27.8c0.3,4.3-0.2,8.6-1.5,12.7l-0.1,0.4
	l0.2,0.3c0.1,0.1,5.2,7.8,4.4,15.2c-0.1,0.9-2,22.7-31.5,27.3c-2.2,0.3-4.4,0.5-6.7,0.5c-5.6,0-13.4-1-19.6-5.7
	c1.7-2.3,6.7-10.2,5.8-23.4c-0.2-3.8-0.9-7.5-2.1-11.2c-0.1-0.3-2-7.3-6.3-8.9c-1.8-0.8-3.9-0.6-5.5,0.6c-3.3,2-4.6,6-5.6,9.5
	c-2.2,7.6-2.2,15.7-0.2,23.3c1.1,3.9,2.9,7.5,5.4,10.7c-4.5,4-10.3,6.3-16.4,6.3c-2.6,0-5.2-0.4-7.6-1.1c-0.1,0-11-3.3-14.6-9.3
	c-0.8-1.3-0.8-1.6-0.8-1.9c0.2-0.3,0.6-0.5,0.9-0.5c1.5-0.4,3.1-0.6,4.7-0.5c2.4,0,4.8,0.3,7.2,0.8c6,1.5,11.5,4.4,16.1,8.4l0.2,0.1
	c0.4,0.5,1,0.7,1.6,0.8l0,0c0.4,0,0.8-0.2,1-0.5c0.2-0.3,0.3-0.7,0.3-1.1c-0.1-0.4-0.3-0.7-0.5-0.9l-0.1-0.1
	C52.1,97.6,45.9,93.8,39,92c-2.5-0.6-5.1-0.9-7.6-0.9c-2.4-0.1-4.7,0.3-7,1c-2.5,0.9-3.9,3.5-3.1,6.1c2.2,8.4,15,13.3,15.5,13.5
	c3.9,1.6,8.1,2.5,12.4,2.5c7.3,0,14.3-2.7,19.8-7.5c8.4,7.3,20.4,8.1,25.2,8.1c1.6,0,2.6-0.1,2.6-0.1c40.1-3.2,41.5-34.4,41.5-34.7
	c0.3-5.8-1.1-11.5-4.2-16.4C134.8,60.2,135.2,56.7,135.2,53.2z M69,97.9c-1.6-2.2-5.4-9-4.6-19.7C65.2,69,67.9,65,68,64.9
	c0.2-0.3,0.4-0.6,0.7-0.8l0,0c0.3,0.2,0.6,0.5,0.8,0.8l0.1,0.2c0,0,3,4.8,3.5,13.3C73.7,89.8,70.4,95.9,69,97.9z"/>
<path class="st1" d="M727,57.2h-2.2V43.9h-5v-2.1H732v2.1h-5V57.2z M743.3,53.7H743l-5.5-8.3v11.8h-2.2V41.8h2.3l5.5,8.5l5.5-8.5
	h2.4v15.4h-2.2V45.4L743.3,53.7z"/>
</svg>
