<?xml version="1.0" standalone="no"?>
<!DOCTYPE svg PUBLIC "-//W3C//DTD SVG 20010904//EN"
 "http://www.w3.org/TR/2001/REC-SVG-20010904/DTD/svg10.dtd">
<svg version="1.0" xmlns="http://www.w3.org/2000/svg"
 width="320.000000pt" height="320.000000pt" viewBox="0 0 320.000000 320.000000"
 preserveAspectRatio="xMidYMid meet">
<metadata>
Created by potrace 1.11, written by Peter Selinger 2001-2013
</metadata>
<g transform="translate(0.000000,320.000000) scale(0.100000,-0.100000)"
fill="#000000" stroke="none">
<path d="M630 2560 l0 -230 -150 0 -150 0 0 -195 0 -195 144 0 145 0 4 -497
c4 -552 6 -573 71 -710 43 -90 107 -155 190 -194 99 -46 181 -60 394 -66 l192
-6 0 221 0 220 -132 4 c-159 4 -198 19 -238 89 l-25 44 -3 448 -3 447 231 0
230 0 0 195 0 195 -235 0 -235 0 0 230 0 230 -215 0 -215 0 0 -230z"/>
<path d="M2591 2344 c-102 -27 -190 -92 -253 -184 -16 -24 -17 -22 -17 73 l-1
97 -220 0 -220 0 0 -930 0 -930 230 0 230 0 0 553 c0 596 3 635 54 734 28 56
82 108 134 130 52 22 158 27 220 10 51 -14 52 -14 57 7 19 87 64 421 58 426
-14 13 -111 30 -166 29 -29 0 -76 -7 -106 -15z"/>
</g>
</svg>
