<svg id="1b59b302-08d6-472e-9f45-d1aec0e29f5f" data-name="Layer 1" xmlns="http://www.w3.org/2000/svg" viewBox="0 0 226.5 50.81"><title>brightline-logo</title><metadata><?xpacket begin="﻿" id="W5M0MpCehiHzreSzNTczkc9d"?>
<x:xmpmeta xmlns:x="adobe:ns:meta/" x:xmptk="Adobe XMP Core 5.6-c111 79.158366, 2015/09/25-01:12:00        ">
   <rdf:RDF xmlns:rdf="http://www.w3.org/1999/02/22-rdf-syntax-ns#">
      <rdf:Description rdf:about=""
            xmlns:dc="http://purl.org/dc/elements/1.1/">
         <dc:title>
            <rdf:Alt>
               <rdf:li xml:lang="x-default">brightline-logo</rdf:li>
            </rdf:Alt>
         </dc:title>
      </rdf:Description>
   </rdf:RDF>
</x:xmpmeta>
                                                                                                    
                                                                                                    
                                                                                                    
                                                                                                    
                                                                                                    
                                                                                                    
                                                                                                    
                                                                                                    
                                                                                                    
                                                                                                    
                                                                                                    
                                                                                                    
                                                                                                    
                                                                                                    
                                                                                                    
                                                                                                    
                                                                                                    
                                                                                                    
                                                                                                    
                                                                                                    
                           
<?xpacket end="w"?></metadata>
<path d="M131.4,33.4a37.7,37.7,0,0,0,9.7-8,27.38,27.38,0,0,0,4.9-6.8,21.42,21.42,0,0,0,1.3-1.9c1.6-2.8,5.6-11.2,3.1-12.5-2-1-4.8,2.7-5.8,4-0.4.5-1.2,1.6-1.6,2.2-1.1,1.9-1.1,1.4-2.3,3.3,0-.1-1.9,2.4-1,1.3-3.8,5.9-7.9,11.6-10.1,19.6Z" transform="translate(0 -2.39)" fill="none" stroke="#fff" stroke-miterlimit="10"/><path d="M198.6,43.7c-3.3,0-17.5-.1-21.7.3-7.6-.6-24.2,2.3-35.2,1.7-1.9-.1-3.6-0.4-4.5-0.5-3.9-.5-9.5-3.6-7.8-8,3.1-1.5,5.7-3.6,8.5-5.4,1.4-1.2,5-5.7,5.4-6.1s2.9-3.4,3.3-4c4.4-6,11.3-20.7,2.3-19.2-1.5.8-3.3,1.6-4.2,2.8-0.5.6-1.7,1.8-4.4,5.4-3.8,6-10.6,14.2-12.4,24.6-4.2,3.2-10.2,6.6-16.2,7.9a52,52,0,0,1-6.7,1c-9.4,1.2-21,.5-30.1.4-2.8,0-11.8-.1-14.7-0.1-5.7,0-15.3.4-18.8,0.5-8.4.2-17.9-.7-25.6-0.9C9.8,44,4.2,43.8.4,43.7H0v1.9c3.8,0.1,12.1.2,19,.4,0.4,0,19.1.8,30,.2,9.9-.5,23.1.2,29.5,0.2H90.7c4-.1,9.9.2,13.8-0.3,2.3-.3,5.2-0.8,4.7-0.7,0.3-.1,1.6-0.4,2.1-0.5,4.2-.5,15.7-6.4,15.7-6.8-1.3,6.8,6.1,8,9.1,8.9a54.32,54.32,0,0,0,11.5.5c4.1-.1,17.4-1.5,19.1-1.5,6-.1,11.8-0.8,18.1-0.9,0.3-.1,20.9-0.1,41.7,0V43.5C211.5,43.6,198.7,43.6,198.6,43.7ZM140.7,13.8a19.42,19.42,0,0,0,2.3-3.3,17.68,17.68,0,0,1,1.6-2.2c1-1.3,3.8-5.1,5.8-4,2.6,1.3-1.5,9.7-3.1,12.5a21.42,21.42,0,0,0-1.3,1.9,29.36,29.36,0,0,1-4.9,6.8c-2.8,3-5.8,6-9.7,8l-1.9,1.2c2.2-7.9,6.3-13.6,10.1-19.6C138.7,16.2,140.7,13.6,140.7,13.8Z" transform="translate(0 -2.39)" fill="#fff"/><path d="M47.1,30.6c0,3.4-2.3,7.1-5.9,7.1a7,7,0,0,1-5-2.2l1.5-7.1a8,8,0,0,1,5.5-2.7c2.4,0,3.9,1.9,3.9,4.9M44,21.9a8.7,8.7,0,0,0-5.3,1.8l2.1-9.8H36.5l-4.6,22-0.1.2a23.44,23.44,0,0,1-1.2,4.1l-0.3.9h4.1l0.2-.4c0.2-.5.4-1.1,0.6-1.6a8.43,8.43,0,0,0,6.3,2.5h0c6.3,0,10.2-5.8,10.2-11.2-0.1-4.9-3.3-8.5-7.7-8.5" transform="translate(0 -2.39)" fill="#fff"/><path d="M67.5,23.2L67.3,23a3.87,3.87,0,0,0-3.1-1.1,5.9,5.9,0,0,0-4.4,2.2V22.4H55.9V23a16.73,16.73,0,0,1-.5,4.3L52.5,41h4.3l2.6-12.2c1-1.1,2.9-2.9,4.6-2.9a3.08,3.08,0,0,1,1.9.6l0.8,0.7Z" transform="translate(0 -2.39)" fill="#fff"/><polygon points="70.4 20.01 66.4 38.71 70.7 38.71 74.6 20.01 70.4 20.01" fill="#fff"/><path d="M84.3,37.8c-2.4,0-4-1.9-4-4.9,0-3.5,2.2-7.1,5.9-7.2a6.78,6.78,0,0,1,5,2.3l-1.5,7.1a7.45,7.45,0,0,1-5.4,2.7M97.4,22.4H93.3l-0.2.3a8.65,8.65,0,0,0-.7,1.7,8.29,8.29,0,0,0-6.3-2.6H86c-5.6,0-10.2,5.1-10.2,11.2,0,4.9,3.2,8.5,7.7,8.5a9.46,9.46,0,0,0,5.2-1.7l-1.6,5.9c-0.5,2.4-2.4,3.8-5.2,3.8a8.28,8.28,0,0,1-6.1-2.4l-0.5-.6-2.4,3.1L73.3,50a11.38,11.38,0,0,0,8.4,3.2c4.9,0,8.6-2.7,9.5-7l4.4-18.8a27.87,27.87,0,0,1,1.3-4.3Z" transform="translate(0 -2.39)" fill="#fff"/><path d="M110.2,21.9a9.58,9.58,0,0,0-5.4,1.9l2.1-10h-4.3L96.8,41h4.3l2.7-12.7a7.84,7.84,0,0,1,5.4-2.7c1.5,0,3.1.6,3.1,2.5a8.79,8.79,0,0,1-.3,2L109.7,41h4.2l2.2-10.3a14.71,14.71,0,0,0,.4-2.7,6,6,0,0,0-6.3-6.1" transform="translate(0 -2.39)" fill="#fff"/><path d="M128.6,17.2h-4.2l-1.2,5.3h-3.4L119,26h3.4l-2.1,9.9a11.55,11.55,0,0,0-.2,1.6c0,2.7,1.8,4.3,4.7,4.3A11.22,11.22,0,0,0,129,41l0.3-.2,0.2-3.7-0.9.4a9.47,9.47,0,0,1-2.6.4c-1.5,0-1.5-.8-1.5-1a5.76,5.76,0,0,1,.2-1l2.1-9.9H132l0.7-3.6h-5.2Z" transform="translate(0 -2.39)" fill="#fff"/><polygon points="139 11.41 133.2 38.71 136.2 38.71 142 11.41 139 11.41" fill="#fff"/><polygon points="141.4 38.71 144.4 38.71 148.2 20.71 145.1 20.71 141.4 38.71" fill="#fff"/><path d="M161.7,22.6a11.11,11.11,0,0,0-6.3,2.3,5.7,5.7,0,0,0-.1-1.3l-0.1-.6h-2.8l0.1,0.7a13.22,13.22,0,0,1-.2,3.4L149.4,41h3l2.7-12.8c1.5-1.3,3.7-2.8,6.1-2.8,2,0,4,1,4,3.1a10.53,10.53,0,0,1-.3,2.1L162.7,41h3.1l2.1-10.1V30.8a9.69,9.69,0,0,0,.3-2.3c0-3.4-2.7-5.9-6.5-5.9" transform="translate(0 -2.39)" fill="#fff"/><path d="M173.8,29.8a7.55,7.55,0,0,1,6.8-4.5,5.59,5.59,0,0,1,4.1,1.5,4.36,4.36,0,0,1,1.1,2.9h-12v0.1Zm6.8-7.2a10.63,10.63,0,0,0-10.5,10.5c0,5,3.6,8.4,8.7,8.4a13.77,13.77,0,0,0,8-2.5l0.5-.4-1.7-2.3-0.5.3a10.52,10.52,0,0,1-6,2,5.67,5.67,0,0,1-6-5.8V32.3h15.6l0.1-.5a7.57,7.57,0,0,0,.1-1.5c0.1-4.6-3.2-7.7-8.3-7.7" transform="translate(0 -2.39)" fill="#fff"/><path d="M73.3,20.6a2.5,2.5,0,1,0-2.5-2.5,2.54,2.54,0,0,0,2.5,2.5" transform="translate(0 -2.39)" fill="#fff"/><path d="M147.4,16.2a1.8,1.8,0,1,0,1.8,1.8,1.86,1.86,0,0,0-1.8-1.8" transform="translate(0 -2.39)" fill="#fff"/></svg>