<svg id="9c03640d-fa25-4486-a73a-9c5c11515dd7" data-name="logo-panamera" xmlns="http://www.w3.org/2000/svg" viewBox="0 0 509.31 67.69"><title>logo_panamera</title><path d="M32.44,15.76c1.62-4.93,4.64-6.59,7.93-7.88C50.2,4,60.54,2.2,71,1.11c11.6-1.22,23.28-2,34.84.69a25.5,25.5,0,0,1,10.37,4.65c4.86,3.86,5.57,8.5,2,13.57-4.48,6.31-11.4,9.14-18.27,11.57A140.21,140.21,0,0,1,60.27,39c-6.5.34-13,.76-19.48,1.19a10.81,10.81,0,0,0-7.08,3.11c-6.88,6.56-14,12.91-21,19.32-4.41,4-6.57,4.74-12.64,4.23-0.44-1.65.94-2.37,1.77-3.3a635.81,635.81,0,0,1,46.1-45.94C52.88,13.1,59.08,15.42,64.78,14,59.63,20.29,52.86,24.8,47.36,31.31c5.79,1.51,11.13-.16,16.43-0.51,12-.79,23.77-2.78,34.69-8.2,2.92-1.45,5.82-3.21,5.35-7s-3.47-5.18-7-5.92c-14.33-3-28.53-1.22-42.76.73A105.23,105.23,0,0,0,32.44,15.76Z" transform="translate(0.01 0.01)" fill="#fff"/><path d="M509,38.74a6.54,6.54,0,0,0-10.32-2.23c-4.19,4.06-8.25,8.26-12.3,12.46-5.4,5.61-11.79,9.24-19.68,9.6-2.45.11-5.28,0.11-6.56-2.61s-0.23-5.12,1.63-7.34a27.11,27.11,0,0,1,13.13-8.69,41.06,41.06,0,0,1,14.29-2c2,0.11,4.2-.33,4.31-2.39s-2.47-2.06-3.92-2.3a36.9,36.9,0,0,0-21.9,3.27c-3.49,1.62-6.32,2.83-9.68-.53-2.26-2.26-5.76-2.24-9-2.29-6.11-.09-11.31,3-16.41,4.87-2-1.31,2.12-3.85-1.17-4-2.56-.09-5.51-0.58-7.75,2.19A181.13,181.13,0,0,1,411.4,50.59c-10.16,10.24-23,9.84-36,8.9,4-3.4,9.11-4.45,13.62-6.65,5.74-2.79,11.3-5.92,14.34-11.89,2.07-4.06.83-6.64-3.45-8.12a15.45,15.45,0,0,0-8.86-.24c-15.19,3.61-29.25,8.69-34.48,25.66a2.79,2.79,0,0,1-2.16,1.82,38.84,38.84,0,0,1-14.9,1.87c4.22-6.29,8.83-11.63,11.94-17.89,2.5-5,1.14-7.64-4.21-9.45a13.25,13.25,0,0,0-7.36-.22c-5.28,1.17-10,3.62-14.86,6.52-1.14-5.63-5-6.52-9.81-6.16-3.93.3-7.35,1.93-10.83,3.52-1.2.55-3.28,2.23-2.06-1.3a0.92,0.92,0,0,0-1.11-1.19c-2.89.16-6-.74-8.2,2.31-2,2.69-4.38,5-6.46,7.62-6.63,8.25-14.63,14.09-25.62,14.72-2,.11-4.27.47-5.27-1.76-0.88-2-.06-4,1.33-5.54a78.31,78.31,0,0,1,11.65-11c0.78-.58,1.49-1.37,2.66-1s2.6,1.68,3.3-.39c0.61-1.78-1-2.57-2.08-3.58-3-2.79-5.78-2.76-8.73.09q-6.66,6.43-13.48,12.7c-5.87,5.41-12.69,8.53-20.83,8-4.53-.28-6.21-3.29-4.1-7.22A18.43,18.43,0,0,1,232,44c7.13-4.53,15-6.12,23.36-6,1.65,0,3.79.13,3.88-2.06,0.08-1.84-2-1.87-3.39-2.19-6.92-1.51-13.55-.1-20.14,2-10.7,3.33-19.46,9.17-23,20.24-1.14,3.56-3,4.44-5.84,4.8a31.53,31.53,0,0,1-6.5,0c-4.81-.39-5.1-1-2.39-4.87,2.88-4.09,6.15-7.94,8.65-12.24,4-6.83,1-11.35-6.94-11.14-6.18.17-11.53,2.86-16.83,5.48-1.44-1.42.78-2.54,0-3.81-4.42-1-7.85,0-10.87,3.9-3.88,5-8.44,9.45-12.78,14.08-4.91,5.23-11.31,7.48-18.16,8.66-2,.35-4,0.21-5.33-1.84a3.83,3.83,0,0,1,.27-4.67c4.73-6.2,9.65-12.19,17.85-14,1.66-.36,2.33-1,1.49-2.77a6.34,6.34,0,0,0-10.26-2.11c-4.67,4.28-9.23,8.69-13.91,13-5.91,5.4-12.4,9.6-20.83,9.52-5.61,0-7.49-3.15-4.9-8.11a18.57,18.57,0,0,1,6.09-6.55,35.54,35.54,0,0,1,23.19-6.14c2.21,0.14,5.05.41,5.25-2.29s-2.89-2.73-4.89-2.92a46.15,46.15,0,0,0-31.22,8.27,25.92,25.92,0,0,0-10.5,15.29c-1.47,5.55,1,9.54,6.58,10.82,6.54,1.48,12.5-.83,18.27-3.4,3.72-1.65,7.31-5.56,9.89,1.32,0.34,0.91,2.2,1.3,3.4,1.83,4,1.78,7.89.54,11.76-.41,1.3-.32,2.64-1.18,3.83-0.37,4.3,2.94,8.06,1,11.32-1.57a107.83,107.83,0,0,0,10.12-9.69,47.32,47.32,0,0,1,18.26-11.9c2.88-1,6.65-2.72,8.81.44s-0.8,5.83-2.59,8.4c-2.35,3.23-4.81,6.39-6.93,9.77-1.85,2.94-1.2,5,2.66,5.54,3.18,0.47,6.33.14,9.48,0.27,8.63,0.35,17.14-5.24,25.83-.49a1.3,1.3,0,0,0,.5,0c6.38,0.31,12.08-1.88,17.53-4.86,2.27-1.24,3.9-1.83,5.49,1.23,1.75,3.38,5.26,4.34,8.93,4.61,4.26,0.31,8.23-.9,12.22-2.11,1.06-.32,2.36-1.58,3.23-0.5,2.87,3.58,5.53,1.34,8.09-.14,3.38-2,5.61-5.2,8.15-8.06,4.81-5.41,10-10.31,17-12.72,2.78-1,5.57-1.7,7.71,1.16,2,2.65.07,4.84-1.32,6.77-3.5,4.84-7.25,9.49-11.47,15a11.59,11.59,0,0,0,10.44-4.07c2.79-3.1,5.33-6.43,8.19-9.46,4-4.27,8.51-8,14.2-9.87,2-.65,4.31-1.23,6,0.89s0.81,4.21-.34,6.06c-2,3.24-4.38,6.28-6.47,9.48-1.06,1.62-3,3.36-2.07,5.31,1,2.15,3.57,2.14,5.73,2.26,6.93,0.37,13.58-1.14,20.12-3.21,1.75-.55,3.36-1.45,5.22-0.33,6.49,3.89,13.66,3.4,20.85,3.48,6.79,0.08,13.29-4.77,20.5-.35,2.9,1.78,6.18-1.55,8.65-3.81,4.42-4.06,8.63-8.37,13.13-12.34,5.17-4.56,10.86-8.39,17.93-9.27,3-.38,6.25-0.1,8.22,2.57,1.77,2.39,0,4.72-1.06,7-3.34,6.85-.76,12.93,6.58,15.38,8,2.66,15.07-.15,21.88-4,2.2-1.23,3.21-1.55,5.06,1,5.32,7.25,19.92,5.35,24.19-3-4.13,0-7.75,2.26-11.79,2-3.64-.28-6.38-3.08-4.74-5.78,4-6.59,8.61-12.94,16.88-14.77C509.13,41.06,509.72,40.32,509,38.74ZM370,51.87a12.28,12.28,0,0,1,3.62-5.28,39.77,39.77,0,0,1,16.82-9.22c2.7-.76,4.87-0.33,5.44,2,0,3-1.18,4.4-2.76,5.37a102.42,102.42,0,0,1-20.74,9.42C369.48,55.15,369.42,53.69,370,51.87Z" transform="translate(0.01 0.01)" fill="#fff"/></svg>