<svg id="e6501273-e264-484f-b1f5-b9cfc561ed22" data-name="Layer 1" xmlns="http://www.w3.org/2000/svg" viewBox="0 0 395.5 132.1"><title>thumb</title><path d="M335,42.78c-11,2-21.95,4.31-33.13,1.32-0.48-.13-0.94-0.29-2.59-0.81,8.3-7.16,11.82-18,23.85-20.8A182.85,182.85,0,0,0,376.26,1.29c3.48-2.1,5.38-1.63,7.82,1.35a116.86,116.86,0,0,0,10,10.43c1.91,1.82,1.74,3,0,4.88-25.82,29-50.69,58.75-77.48,86.82a167.64,167.64,0,0,1-12.62,11.34c-11,9.38-24,10.13-38.58,9L338.1,43.86C337.62,42,337.61,42,335,42.78Z" fill="#fff"/><path d="M189,44.6c5.33-6.15,10.31-11.93,15.33-17.66,1.16-1.33,2.9-1.54,4.51-1.94,20.28-5.05,39.86-11.92,57.8-22.87,2.24-1.37,3.72-1.26,5.52.73A153.52,153.52,0,0,0,283,13.93c2.48,2.25,2.27,3.74.18,6.1-15.89,18-31.63,36.06-47.49,54.06q-15.85,18-32.52,35.24c-13,13.51-28.1,20.54-47.68,16.8l72.92-81.37C215.33,45.71,202.7,49.22,189,44.6Z" fill="#fff"/><path d="M335,42.78c1.44-.91,3-2,4.49-0.41,0.42,0.45-.61,1.26-1.41,1.49C337.36,42.66,336,43.28,335,42.78Z" fill="#aaa9a9"/><path d="M150.25,9.42c-8.22-3.63-17-4.94-25.75-5.37C93.37,2.53,64.55,10.8,37.44,25.59,26.86,31.36,17.08,38.3,9.69,48-2.56,64.18,2.87,79.89,22.39,84.91,31.85,87.34,41.5,87.59,51.17,87c7.69-.48,15.35-1.35,23.5-2.08-1.66,2.33-3.78,3-5.62,3.94C48,100.15,25.66,108.26,2.94,115.42c-3.09,1-3.81,1.95-1.85,4.7A73.48,73.48,0,0,1,6.65,129c1.58,3.06,3.37,3.67,6.75,2.66,18.51-5.52,36.86-11.51,54.68-19,25.62-10.75,49.83-23.88,70.44-42.86,9.34-8.6,18.15-17.71,23.5-29.49C168.45,26.2,164.31,15.63,150.25,9.42Zm-21.37,28c-2.25,4.06-6,6.66-9.58,9.33-17.83,13.17-38.33,18.74-60,21-3,.31-6,0.53-8.45.75A29.64,29.64,0,0,1,38.27,65.7c-5.53-2.69-6.83-7.18-3.42-12.31,3.77-5.67,9.25-9.57,14.91-13.06C71.1,27.2,94.49,23.06,119.18,24.92a17.22,17.22,0,0,1,6.65,2C130.24,29.22,131.32,33,128.88,37.38Z" fill="#fff"/></svg>